<svg width="40" height="40" viewBox="0 0 40 40" fill="none" xmlns="http://www.w3.org/2000/svg">
<path d="M1.66681 16.6647C1.22474 16.6647 0.800783 16.4891 0.488196 16.1765C0.17561 15.8639 0 15.44 0 14.9979V1.66681C0 1.22474 0.17561 0.800783 0.488196 0.488196C0.800783 0.17561 1.22474 0 1.66681 0H15.0013C15.4433 0 15.8673 0.17561 16.1799 0.488196C16.4924 0.800783 16.6681 1.22474 16.6681 1.66681V14.9979C16.6681 15.44 16.4924 15.8639 16.1799 16.1765C15.8673 16.4891 15.4433 16.6647 15.0013 16.6647H1.66681ZM25.0021 16.6647C24.56 16.6647 24.1361 16.4891 23.8235 16.1765C23.5109 15.8639 23.3353 15.44 23.3353 14.9979V1.66681C23.3353 1.22474 23.5109 0.800783 23.8235 0.488196C24.1361 0.17561 24.56 0 25.0021 0H38.3332C38.7753 0 39.1992 0.17561 39.5118 0.488196C39.8244 0.800783 40 1.22474 40 1.66681V14.9979C40 15.44 39.8244 15.8639 39.5118 16.1765C39.1992 16.4891 38.7753 16.6647 38.3332 16.6647H25.0021ZM1.66681 40C1.22474 40 0.800783 39.8244 0.488196 39.5118C0.17561 39.1992 0 38.7753 0 38.3332V24.9988C0 24.5567 0.17561 24.1327 0.488196 23.8201C0.800783 23.5076 1.22474 23.3319 1.66681 23.3319H15.0013C15.4433 23.3319 15.8673 23.5076 16.1799 23.8201C16.4924 24.1327 16.6681 24.5567 16.6681 24.9988V38.3332C16.6681 38.7753 16.4924 39.1992 16.1799 39.5118C15.8673 39.8244 15.4433 40 15.0013 40H1.66681ZM25.0021 40C24.56 40 24.1361 39.8244 23.8235 39.5118C23.5109 39.1992 23.3353 38.7753 23.3353 38.3332V24.9988C23.3353 24.5567 23.5109 24.1327 23.8235 23.8201C24.1361 23.5076 24.56 23.3319 25.0021 23.3319H38.3332C38.7753 23.3319 39.1992 23.5076 39.5118 23.8201C39.8244 24.1327 40 24.5567 40 24.9988V38.3332C40 38.7753 39.8244 39.1992 39.5118 39.5118C39.1992 39.8244 38.7753 40 38.3332 40H25.0021Z" fill="white"/>
</svg>
